<svg xmlns="http://www.w3.org/2000/svg" width="64" height="64" xml:space="preserve"><path fill="#844747" d="M3 53.001h58V63H3z"/><path fill="#965353" d="M62 48c.55 0 1 .45 1 1v3.001c0 .55-.45 1-1 1H2c-.55 0-1-.45-1-1V49c0-.55.45-1 1-1h60z"/><path fill="#E6E9ED" d="M28 46c0 1.11-.89 2-2 2H5a2 2 0 0 1-2-2V29c0-1.1.9-2 2-2h21a2 2 0 0 1 2 2v17zm-10-8.5a2.5 2.5 0 0 0-5 0 2.5 2.5 0 0 0 5 0z"/><path fill="#5D9CEC" d="M26 11.5c0 5.24-3.84 9.57-8.86 10.36L16 23l-1.02-1.03C9.42 21.7 5 17.12 5 11.5 5 5.7 9.7 1 15.5 1S26 5.7 26 11.5z"/><path fill="#965353" d="m38 16.001-3 3v-5a9 9 0 0 1 9-9h8v4c2.76 0 5 2.24 5 5v5l-3-3s-3.71 2-8 2c-4.28 0-8-2-8-2z"/><path fill="#EAC6BB" d="M57 19.001v4c0 4.27-2.44 7.98-6 9.8-1.5.771-3.2 1.2-5 1.2s-3.5-.43-5-1.2c-3.56-1.819-6-5.53-6-9.8v-4l3-3s3.72 2 8 2c4.29 0 8-2 8-2l3 3z"/><path fill="#87BCF4" d="m46 37.001-3 1-2-2v-3.2c1.5.771 3.2 1.2 5 1.2s3.5-.43 5-1.2v3.2l-2 2-3-1z"/><path fill="#5D9CEC" d="m43 38.001 3-1 3 1 2-2h4c3.32 0 6 2.68 6 6V48H36c1.11 0 2-.89 2-2v-2h-7v-1.999c0-3.32 2.68-6 6-6h4l2 2z"/><path fill="#CCD1D9" d="M38 44v2c0 1.11-.89 2-2 2H26c1.11 0 2-.89 2-2v-2h10z"/><circle fill="#FFF" cx="15.5" cy="37.5" r="2.5"/><path fill="#844747" d="M51.999 12.101c1.103 0 2 .897 2 2v2l3 3v-5c0-2.76-2.24-5-5-5v-4h-3v4a3 3 0 0 0 3 3z"/><path fill="#D3B1A9" d="m53.999 16.101-.003.002v6.998c0 4.27-2.44 7.98-6 9.8a10.84 10.84 0 0 1-3.499 1.09c.492.067.992.11 1.502.11 1.8 0 3.5-.43 5-1.2 3.56-1.819 6-5.53 6-9.8v-4l-3-3z"/><path fill="#4A89DC" d="M57.996 42.101V48h3.003v-5.899c0-3.32-2.68-6-6-6h-3.003c3.32 0 6 2.679 6 6zM22 12.492a.997.997 0 0 1-.707-.293l-2.5-2.502a.999.999 0 1 1 1.414-1.414l2.5 2.502A.999.999 0 0 1 22 12.492z"/><path fill="#4A89DC" d="M19.5 14.988a.999.999 0 0 1-.707-1.707l2.5-2.5a.999.999 0 1 1 1.414 1.414l-2.5 2.5a.993.993 0 0 1-.707.293zM9 12.492a.999.999 0 0 1-.707-1.707l2.5-2.502a.999.999 0 1 1 1.414 1.414l-2.5 2.502a.993.993 0 0 1-.707.293z"/><path fill="#4A89DC" d="M11.5 14.988a.997.997 0 0 1-.707-.293l-2.5-2.5a.999.999 0 1 1 1.414-1.414l2.5 2.5a.999.999 0 0 1-.707 1.707zM14.001 16.988a1 1 0 0 1-.948-1.317l3-9.004a1 1 0 1 1 1.897.633l-3 9.004a.999.999 0 0 1-.949.684z"/><path fill="#656D78" d="M53.999 63h2v-2.999a1 1 0 0 0-1-1 1 1 0 0 1-1-1 1 1 0 0 0-1-1H11.001a1 1 0 0 0-1 1 1 1 0 0 1-1 1 1 1 0 0 0-1 1V63h45.998z"/></svg>